Coordinates
version=1
nRows=13
nColumns=36
inDegrees=yes

Units are S.I. units (second, meters, Newtons, ...)
If the header above contains a line with 'inDegrees', this indicates whether rotational values are in degrees (yes) or radians (no).

endheader
time	pelvis_tilt	pelvis_list	pelvis_rotation	pelvis_tx	pelvis_ty	pelvis_tz	hip_flexion_r	hip_adduction_r	hip_rotation_r	knee_angle_r	knee_angle_r_beta	ankle_angle_r	subtalar_angle_r	mtp_angle_r	hip_flexion_l	hip_adduction_l	hip_rotation_l	knee_angle_l	knee_angle_l_beta	ankle_angle_l	subtalar_angle_l	mtp_angle_l	lumbar_extension	lumbar_bending	lumbar_rotation	arm_flex_r	arm_add_r	arm_rot_r	elbow_flex_r	pro_sup_r	arm_flex_l	arm_add_l	arm_rot_l	elbow_flex_l	pro_sup_l
     44.78333330	     -6.51739987	     -9.96500190	      1.52671454	      0.76177534	      1.01615568	      0.87662016	     23.19373017	     11.01613820	     -7.62631101	     19.26819733	      0.33629348	      8.10218770	     -5.75134606	     -7.49999987	     10.93364897	    -13.76982643	     -0.42362723	     53.40485297	      0.93209052	    -12.16509013	      1.16791560	     -7.49999987	      1.83890621	     14.48487650	     -2.85569771	      0.19277293	    -11.37058740	     -3.83404414	     16.52004904	     78.74068497	      3.89759453	     -5.38643134	    -10.44308361	     30.85212975	     72.78855764
     44.80000000	     -6.75742997	    -10.21739645	      1.89689847	      0.75991720	      1.01629227	      0.87797061	     22.05161547	     11.33991812	     -7.96741987	     18.86098734	      0.32918633	      9.32772679	     -5.27029986	     -7.49999987	     13.67969250	    -13.97180443	      1.01633250	     56.47175747	      0.98561810	    -12.40547355	      0.33740481	     -7.49999987	      2.34770191	     14.54789743	     -2.60844931	      0.21155176	    -11.36665352	     -3.96366435	     17.38754719	     78.26779442	      3.27819930	     -4.97085968	    -10.52661251	     27.72333442	     72.81469672
     44.81666670	     -6.67354838	    -10.30253509	      2.22674894	      0.75746732	      1.01655636	      0.87925445	     20.63927725	     11.50541499	     -8.19176671	     18.48107443	      0.32255560	     10.22707058	     -5.04013568	     -7.49999987	     15.93166656	    -14.03657710	      2.13851426	     58.92484215	      1.02843251	    -10.97206636	     -0.91190384	     -7.49999987	      2.10010384	     14.46570166	     -2.26225142	      0.57584944	    -11.30271774	     -4.07590834	     18.07047163	     77.98864534	      2.43804691	     -4.60211754	    -10.53457600	     25.88376487	     72.81014273
     44.83333330	     -6.62311797	    -10.09093014	      2.35513579	      0.75632813	      1.01649761	      0.88161320	     19.29239496	     11.42852894	     -8.20249593	     18.19617905	      0.31758324	     10.98584604	     -4.86612256	     -7.49999987	     17.97444642	    -13.88708833	      2.83534415	     60.80877864	      1.06131340	     -8.45788826	     -2.44259860	     -7.49999987	      1.83653058	     14.02144452	     -1.69663818	      1.01685454	    -11.18373292	     -4.30055867	     18.82232335	     75.75900211	      1.86929263	     -4.30999402	    -10.59954691	     23.50987105	     71.41662553
     44.85000000	     -6.75528148	     -9.82962563	      2.51174697	      0.75684491	      1.01669341	      0.88366242	     18.17531376	     11.19197706	     -8.72630728	     17.97642502	      0.31374780	     11.92505080	     -3.99037452	     -7.49999987	     20.23765017	    -13.61619989	      3.54229511	     62.45338950	      1.09001728	     -6.34767887	     -4.45579655	     -7.49999987	      1.82133039	     13.54296073	     -0.67037915	      0.87386995	    -11.33714816	     -4.17739489	     20.28058170	     74.00384212	      1.63562724	     -4.13270534	     -8.80480667	     20.94101393	     71.48736787
     44.86666670	     -6.57881014	     -9.39574087	      2.54529314	      0.75719231	      1.01959108	      0.88545635	     16.63147575	     10.92744277	     -8.67447527	     17.54547350	      0.30622628	     12.57726314	     -3.59999181	     -7.49999987	     22.22960258	    -13.24210440	      3.98710082	     63.90397371	      1.11533475	     -4.99659586	     -6.50381462	     -7.49999987	      1.36310944	     12.90573806	     -0.11229653	      1.47346620	    -11.37273051	     -4.29119620	     21.07517379	     72.68832201	      0.94021834	     -3.93156643	     -8.83868555	     19.54266354	     70.50394621
     44.88333330	     -6.15732544	     -8.86000934	      2.69336933	      0.75490516	      1.02470208	      0.88721889	     14.73818130	     10.52966649	     -8.73954729	     16.83238455	      0.29378053	     13.30056503	     -2.83674904	     -7.49999987	     24.07284918	    -12.68693384	      4.47274742	     64.90683509	      1.13283798	     -4.18095336	     -8.51920310	     -7.49999987	      0.54063165	     12.20731108	      0.51656035	      2.03707145	    -11.50839350	     -4.18896137	     22.21112906	     71.54769412	      0.45543758	     -3.80703577	     -8.51979843	     18.25165934	     69.68178183
     44.90000000	     -5.46612933	     -8.19601664	      2.91050683	      0.74920413	      1.02911967	      0.88932303	     12.50237080	     10.00512005	     -8.83620153	     15.85311944	      0.27668913	     14.02640475	     -1.98462236	     -7.49999987	     25.44999496	    -12.01674714	      4.75470633	     64.95234205	      1.13363223	     -3.16448273	    -10.28491436	     -7.49999987	     -0.75960355	     11.40355856	      1.45773812	      2.54457522	    -11.77569294	     -3.98824664	     23.56294680	     71.09337708	      0.36372742	     -3.89458643	     -6.70916104	     16.74820952	     69.78409454
     44.91666670	     -4.57018090	     -7.38565419	      3.03861141	      0.74258226	      1.03081674	      0.89120484	     10.05868105	      9.36069790	     -8.80347383	     14.77502339	      0.25787281	     14.59875380	     -1.29431945	     -7.49999987	     26.12425545	    -11.32863934	      4.57439652	     63.77211676	      1.11303341	     -1.70248306	    -11.47281259	     -7.49999987	     -2.44938866	     10.45346355	      2.23228594	      3.52729808	    -11.96020274	     -3.89811687	     24.47015917	     71.21894431	      0.20203496	     -3.93853251	     -6.45660885	     15.59930728	     69.88029998
     44.93333330	     -3.73423491	     -6.55302177	      3.11954055	      0.73800140	      1.03066991	      0.89258693	      7.73091111	      8.67223733	     -8.83164339	     13.71115701	      0.23930483	     14.94198232	     -0.75547201	     -7.49999987	     26.37432230	    -10.68671471	      4.11397637	     61.55148123	      1.07427601	     -0.19218058	    -12.12463571	     -7.49999987	     -4.06948747	      9.48076100	      3.02899176	      4.45604003	    -12.16920615	     -3.77693581	     25.46149482	     71.34541183	     -0.10554317	     -4.04798681	     -6.15360381	     14.73731009	     70.00168641
     44.95000000	     -3.01412191	     -5.80316851	      3.05371242	      0.73471499	      1.03128248	      0.89405881	      5.61032183	      8.04919560	     -8.80658313	     12.74683086	      0.22247417	     14.98770516	     -0.40799139	     -7.49999987	     26.38353492	    -10.21822124	      3.38970612	     58.56158795	      1.02209252	      1.15761136	    -12.42543881	     -7.49999987	     -5.50243707	      8.61508312	      3.80755997	      5.28593328	    -12.40837982	     -3.64267658	     26.49681177	     71.33619762	     -0.68078104	     -4.14980999	     -6.06293192	     14.22751084	     69.91945273
     44.96666670	     -2.48456718	     -5.14112738	      2.84725217	      0.73067331	      1.03299466	      0.89540612	      3.84082254	      7.49079265	     -8.62161702	     11.96319690	      0.20879717	     14.79478045	     -0.31909863	     -7.49999987	     26.43963307	     -9.83925438	      2.46048079	     55.04732877	      0.96075713	      2.44421176	    -12.33955810	     -7.49999987	     -6.77176706	      7.87660586	      4.67340542	      5.87819332	    -12.78429148	     -3.37493104	     27.99850368	     70.68801394	     -1.41680495	     -4.23974815	     -5.92382005	     14.20681583	     69.12934789
     44.98333330	     -2.25805421	     -4.60266218	      2.48570988	      0.72652769	      1.03422761	      0.89597654	      2.54402798	      7.03885574	     -8.19301619	     11.37060456	      0.19845449	     14.37181912	     -0.54702639	     -7.49999987	     26.85525875	     -9.50876596	      1.31926575	     51.24818238	      0.89444952	      4.04874819	    -11.60584777	     -7.49999987	     -7.70916668	      7.26844476	      5.58532837	      6.50626705	    -13.15764461	     -3.31985242	     29.07174239	     70.27353949	     -2.27588024	     -4.28261654	     -5.95220334	     14.60701112	     68.60661002
